<svg width="140" height="32" viewBox="0 0 140 32" fill="none" xmlns="http://www.w3.org/2000/svg">
<g clip-path="url(#clip0_6_37694)">
<path d="M29.9521 7.89515V7.79935L29.8643 7.60776L29.7924 7.51196L29.6727 7.36029L29.537 7.28046C29.5066 7.24421 29.4718 7.21201 29.4332 7.18466H29.3773L15.5428 0.127721C15.3738 0.045187 15.1881 0.00228882 15 0.00228882C14.8119 0.00228882 14.6262 0.045187 14.4572 0.127721L0.654606 7.18466H0.566793C0.528707 7.20954 0.493849 7.23903 0.463015 7.27248L0.359236 7.35231C0.314986 7.39929 0.274919 7.45004 0.239491 7.50398C0.213029 7.53395 0.189004 7.56598 0.167645 7.59978C0.131848 7.66044 0.102421 7.72465 0.0798321 7.79137C0.0829806 7.82322 0.0829806 7.85531 0.0798321 7.88716C0.0676276 7.99325 0.0676276 8.10039 0.0798321 8.20648V22.017C0.0810426 22.239 0.143554 22.4564 0.260472 22.6452C0.37739 22.8339 0.54417 22.9867 0.742419 23.0867L14.545 29.984L14.6807 30.0399H14.7765C14.9752 30.0931 15.1844 30.0931 15.3832 30.0399H15.471L15.6147 29.984L29.4172 23.0867C29.6155 22.9867 29.7823 22.8339 29.8992 22.6452C30.0161 22.4564 30.0786 22.239 30.0798 22.017V8.21447C30.0548 8.10183 30.0116 7.994 29.9521 7.89515ZM15 2.53858L26.1762 8.20648L15 13.7946L3.82384 8.20648L15 2.53858ZM2.39489 10.1463L13.8026 15.8542V26.9744L2.39489 21.2746V10.1463Z" fill="#101828"/>
</g>
<path d="M49.0037 8.45453H51.6386V17.9574C51.6386 18.999 51.3924 19.9152 50.9 20.7059C50.4123 21.4967 49.7258 22.1146 48.8403 22.5596C47.9549 23 46.9204 23.2202 45.7366 23.2202C44.5482 23.2202 43.5113 23 42.6258 22.5596C41.7404 22.1146 41.0539 21.4967 40.5662 20.7059C40.0785 19.9152 39.8347 18.999 39.8347 17.9574V8.45453H42.4696V17.7372C42.4696 18.3433 42.6022 18.883 42.8673 19.3565C43.1372 19.83 43.516 20.2017 44.0037 20.4716C44.4914 20.7367 45.069 20.8693 45.7366 20.8693C46.4043 20.8693 46.9819 20.7367 47.4696 20.4716C47.962 20.2017 48.3408 19.83 48.606 19.3565C48.8711 18.883 49.0037 18.3433 49.0037 17.7372V8.45453Z" fill="#101828"/>
<path d="M56.96 16.6079V23H54.389V12.0909H56.8464V13.9446H56.9742C57.2252 13.3338 57.6253 12.8485 58.1745 12.4886C58.7285 12.1288 59.4127 11.9488 60.2271 11.9488C60.9799 11.9488 61.6357 12.1098 62.1944 12.4318C62.7578 12.7538 63.1934 13.2202 63.5012 13.8309C63.8137 14.4417 63.9676 15.1827 63.9629 16.054V23H61.3918V16.4517C61.3918 15.7225 61.2024 15.152 60.8236 14.74C60.4496 14.3281 59.9311 14.1221 59.2682 14.1221C58.8184 14.1221 58.4183 14.2216 58.068 14.4204C57.7223 14.6146 57.4501 14.8963 57.2512 15.2656C57.0571 15.6349 56.96 16.0824 56.96 16.6079Z" fill="#101828"/>
<path d="M72.0239 12.0909V14.0795H65.7526V12.0909H72.0239ZM67.3009 9.47726H69.8719V19.7187C69.8719 20.0644 69.924 20.3295 70.0282 20.5142C70.1371 20.6941 70.2791 20.8172 70.4543 20.8835C70.6295 20.9498 70.8236 20.9829 71.0367 20.9829C71.1977 20.9829 71.3445 20.9711 71.4771 20.9474C71.6144 20.9238 71.7185 20.9024 71.7896 20.8835L72.2228 22.8934C72.0855 22.9408 71.889 22.9929 71.6333 23.0497C71.3824 23.1065 71.0746 23.1397 70.71 23.1491C70.0661 23.1681 69.4861 23.071 68.97 22.8579C68.4539 22.6401 68.0443 22.304 67.7413 21.8494C67.443 21.3949 67.2962 20.8267 67.3009 20.1449V9.47726Z" fill="#101828"/>
<path d="M74.1741 23V12.0909H76.7452V23H74.1741ZM75.4668 10.5426C75.0596 10.5426 74.7092 10.4077 74.4156 10.1378C74.1221 9.86315 73.9753 9.53407 73.9753 9.15055C73.9753 8.76229 74.1221 8.43322 74.4156 8.16333C74.7092 7.88871 75.0596 7.7514 75.4668 7.7514C75.8787 7.7514 76.2291 7.88871 76.5179 8.16333C76.8115 8.43322 76.9582 8.76229 76.9582 9.15055C76.9582 9.53407 76.8115 9.86315 76.5179 10.1378C76.2291 10.4077 75.8787 10.5426 75.4668 10.5426Z" fill="#101828"/>
<path d="M84.8364 12.0909V14.0795H78.5651V12.0909H84.8364ZM80.1134 9.47726H82.6844V19.7187C82.6844 20.0644 82.7365 20.3295 82.8407 20.5142C82.9496 20.6941 83.0916 20.8172 83.2668 20.8835C83.442 20.9498 83.6361 20.9829 83.8492 20.9829C84.0102 20.9829 84.157 20.9711 84.2896 20.9474C84.4269 20.9238 84.531 20.9024 84.6021 20.8835L85.0353 22.8934C84.898 22.9408 84.7015 22.9929 84.4458 23.0497C84.1949 23.1065 83.8871 23.1397 83.5225 23.1491C82.8786 23.1681 82.2986 23.071 81.7825 22.8579C81.2664 22.6401 80.8568 22.304 80.5538 21.8494C80.2555 21.3949 80.1087 20.8267 80.1134 20.1449V9.47726Z" fill="#101828"/>
<path d="M89.792 8.45453V23H87.221V8.45453H89.792Z" fill="#101828"/>
<path d="M97.2654 23.2131C96.1717 23.2131 95.2271 22.9858 94.4316 22.5312C93.6409 22.072 93.0325 21.4233 92.6063 20.5852C92.1802 19.7424 91.9671 18.7505 91.9671 17.6094C91.9671 16.4872 92.1802 15.5024 92.6063 14.6548C93.0372 13.8025 93.6385 13.1397 94.4103 12.6662C95.1821 12.188 96.0888 11.9488 97.1305 11.9488C97.8028 11.9488 98.4373 12.0577 99.0339 12.2756C99.6352 12.4886 100.166 12.8201 100.625 13.2699C101.089 13.7197 101.453 14.2926 101.719 14.9886C101.984 15.6799 102.116 16.5038 102.116 17.4602V18.2486H93.1745V16.5156H99.6518C99.647 16.0232 99.5405 15.5852 99.3322 15.2017C99.1238 14.8134 98.8326 14.508 98.4586 14.2855C98.0893 14.063 97.6584 13.9517 97.166 13.9517C96.6404 13.9517 96.1788 14.0795 95.781 14.3352C95.3833 14.5862 95.0732 14.9176 94.8506 15.3295C94.6328 15.7367 94.5216 16.1842 94.5168 16.6719V18.1846C94.5168 18.8191 94.6328 19.3636 94.8648 19.8182C95.0968 20.268 95.4212 20.6136 95.8379 20.8551C96.2545 21.0918 96.7422 21.2102 97.3009 21.2102C97.675 21.2102 98.0135 21.1581 98.3165 21.054C98.6196 20.9451 98.8824 20.7864 99.1049 20.5781C99.3274 20.3698 99.4955 20.1117 99.6092 19.804L102.01 20.0738C101.858 20.7083 101.569 21.2623 101.143 21.7358C100.722 22.2045 100.182 22.5691 99.5239 22.8295C98.8658 23.0852 98.1129 23.2131 97.2654 23.2131Z" fill="#101828"/>
<path d="M108.34 23.1917C107.483 23.1917 106.716 22.9716 106.038 22.5312C105.361 22.0909 104.826 21.4517 104.433 20.6136C104.04 19.7756 103.844 18.7576 103.844 17.5596C103.844 16.3475 104.043 15.3248 104.44 14.4915C104.843 13.6534 105.385 13.0213 106.067 12.5952C106.749 12.1643 107.509 11.9488 108.347 11.9488C108.986 11.9488 109.511 12.0577 109.923 12.2756C110.335 12.4886 110.662 12.7467 110.904 13.0497C111.145 13.348 111.332 13.6297 111.465 13.8949H111.571V8.45453H114.149V23H111.621V21.2812H111.465C111.332 21.5464 111.14 21.8281 110.889 22.1264C110.638 22.42 110.307 22.6709 109.895 22.8792C109.483 23.0876 108.965 23.1917 108.34 23.1917ZM109.057 21.0824C109.601 21.0824 110.065 20.9356 110.449 20.642C110.833 20.3437 111.124 19.9294 111.323 19.3991C111.521 18.8688 111.621 18.2509 111.621 17.5454C111.621 16.8399 111.521 16.2268 111.323 15.7059C111.128 15.1851 110.84 14.7803 110.456 14.4915C110.077 14.2026 109.611 14.0582 109.057 14.0582C108.484 14.0582 108.006 14.2074 107.622 14.5057C107.239 14.804 106.95 15.2159 106.756 15.7415C106.562 16.267 106.465 16.8684 106.465 17.5454C106.465 18.2273 106.562 18.8357 106.756 19.3707C106.955 19.901 107.246 20.3201 107.629 20.6278C108.018 20.9309 108.494 21.0824 109.057 21.0824Z" fill="#101828"/>
<path d="M131.133 8.45453H133.768V17.9574C133.768 18.999 133.521 19.9152 133.029 20.7059C132.541 21.4967 131.855 22.1146 130.969 22.5596C130.084 23 129.049 23.2202 127.866 23.2202C126.677 23.2202 125.64 23 124.755 22.5596C123.869 22.1146 123.183 21.4967 122.695 20.7059C122.207 19.9152 121.964 18.999 121.964 17.9574V8.45453H124.599V17.7372C124.599 18.3433 124.731 18.883 124.996 19.3565C125.266 19.83 125.645 20.2017 126.133 20.4716C126.62 20.7367 127.198 20.8693 127.866 20.8693C128.533 20.8693 129.111 20.7367 129.599 20.4716C130.091 20.2017 130.47 19.83 130.735 19.3565C131 18.883 131.133 18.3433 131.133 17.7372V8.45453Z" fill="#101828"/>
<path d="M139.266 8.45453V23H136.632V8.45453H139.266Z" fill="#101828"/>
<defs>
<clipPath id="clip0_6_37694">
<rect width="30" height="30.1117" fill="white"/>
</clipPath>
</defs>
</svg>
