<svg width="20" height="20" viewBox="0 0 20 20" fill="none" xmlns="http://www.w3.org/2000/svg">
<path d="M11.6666 6.66666H12.5C12.721 6.66666 12.9329 6.57886 13.0892 6.42258C13.2455 6.2663 13.3333 6.05434 13.3333 5.83332C13.3333 5.61231 13.2455 5.40035 13.0892 5.24407C12.9329 5.08779 12.721 4.99999 12.5 4.99999H11.6666C11.4456 4.99999 11.2337 5.08779 11.0774 5.24407C10.9211 5.40035 10.8333 5.61231 10.8333 5.83332C10.8333 6.05434 10.9211 6.2663 11.0774 6.42258C11.2337 6.57886 11.4456 6.66666 11.6666 6.66666V6.66666ZM11.6666 9.99999H12.5C12.721 9.99999 12.9329 9.91219 13.0892 9.75591C13.2455 9.59963 13.3333 9.38767 13.3333 9.16666C13.3333 8.94564 13.2455 8.73368 13.0892 8.5774C12.9329 8.42112 12.721 8.33332 12.5 8.33332H11.6666C11.4456 8.33332 11.2337 8.42112 11.0774 8.5774C10.9211 8.73368 10.8333 8.94564 10.8333 9.16666C10.8333 9.38767 10.9211 9.59963 11.0774 9.75591C11.2337 9.91219 11.4456 9.99999 11.6666 9.99999V9.99999ZM7.49996 6.66666H8.33329C8.55431 6.66666 8.76627 6.57886 8.92255 6.42258C9.07883 6.2663 9.16663 6.05434 9.16663 5.83332C9.16663 5.61231 9.07883 5.40035 8.92255 5.24407C8.76627 5.08779 8.55431 4.99999 8.33329 4.99999H7.49996C7.27895 4.99999 7.06698 5.08779 6.9107 5.24407C6.75442 5.40035 6.66663 5.61231 6.66663 5.83332C6.66663 6.05434 6.75442 6.2663 6.9107 6.42258C7.06698 6.57886 7.27895 6.66666 7.49996 6.66666V6.66666ZM7.49996 9.99999H8.33329C8.55431 9.99999 8.76627 9.91219 8.92255 9.75591C9.07883 9.59963 9.16663 9.38767 9.16663 9.16666C9.16663 8.94564 9.07883 8.73368 8.92255 8.5774C8.76627 8.42112 8.55431 8.33332 8.33329 8.33332H7.49996C7.27895 8.33332 7.06698 8.42112 6.9107 8.5774C6.75442 8.73368 6.66663 8.94564 6.66663 9.16666C6.66663 9.38767 6.75442 9.59963 6.9107 9.75591C7.06698 9.91219 7.27895 9.99999 7.49996 9.99999V9.99999ZM17.5 16.6667H16.6666V2.49999C16.6666 2.27898 16.5788 2.06701 16.4225 1.91073C16.2663 1.75445 16.0543 1.66666 15.8333 1.66666H4.16663C3.94561 1.66666 3.73365 1.75445 3.57737 1.91073C3.42109 2.06701 3.33329 2.27898 3.33329 2.49999V16.6667H2.49996C2.27895 16.6667 2.06698 16.7545 1.9107 16.9107C1.75442 17.067 1.66663 17.279 1.66663 17.5C1.66663 17.721 1.75442 17.933 1.9107 18.0892C2.06698 18.2455 2.27895 18.3333 2.49996 18.3333H17.5C17.721 18.3333 17.9329 18.2455 18.0892 18.0892C18.2455 17.933 18.3333 17.721 18.3333 17.5C18.3333 17.279 18.2455 17.067 18.0892 16.9107C17.9329 16.7545 17.721 16.6667 17.5 16.6667ZM10.8333 16.6667H9.16663V13.3333H10.8333V16.6667ZM15 16.6667H12.5V12.5C12.5 12.279 12.4122 12.067 12.2559 11.9107C12.0996 11.7545 11.8876 11.6667 11.6666 11.6667H8.33329C8.11228 11.6667 7.90032 11.7545 7.74404 11.9107C7.58776 12.067 7.49996 12.279 7.49996 12.5V16.6667H4.99996V3.33332H15V16.6667Z" fill="#344054"/>
</svg>
