<svg width="20" height="20" viewBox="0 0 20 20" fill="none" xmlns="http://www.w3.org/2000/svg">
<path d="M10 10.8333C10.4602 10.8333 10.8333 10.4602 10.8333 10C10.8333 9.53977 10.4602 9.16668 10 9.16668C9.53976 9.16668 9.16666 9.53977 9.16666 10C9.16666 10.4602 9.53976 10.8333 10 10.8333Z" stroke="#98A2B3" stroke-width="1.66667" stroke-linecap="round" stroke-linejoin="round"/>
<path d="M10 5.00001C10.4602 5.00001 10.8333 4.62691 10.8333 4.16668C10.8333 3.70644 10.4602 3.33334 10 3.33334C9.53976 3.33334 9.16666 3.70644 9.16666 4.16668C9.16666 4.62691 9.53976 5.00001 10 5.00001Z" stroke="#98A2B3" stroke-width="1.66667" stroke-linecap="round" stroke-linejoin="round"/>
<path d="M10 16.6667C10.4602 16.6667 10.8333 16.2936 10.8333 15.8333C10.8333 15.3731 10.4602 15 10 15C9.53976 15 9.16666 15.3731 9.16666 15.8333C9.16666 16.2936 9.53976 16.6667 10 16.6667Z" stroke="#98A2B3" stroke-width="1.66667" stroke-linecap="round" stroke-linejoin="round"/>
</svg>
